{
    "asset" : {
        "generator" : "Khronos glTF Blender I/O v1.8.2",
        "version" : "2.0"
    },
    "scene" : 0,
    "scenes" : [
        {
            "name" : "Scene",
            "nodes" : [
                0,
                1,
                2,
                3,
                4,
                5,
                6,
                7
            ]
        }
    ],
    "nodes" : [
        {
            "mesh" : 0,
            "name" : "Cone",
            "scale" : [
                0.8999999761581421,
                0.6000000238418579,
                0.8999999761581421
            ],
            "translation" : [
                0,
                0.6000000238418579,
                0
            ]
        },
        {
            "mesh" : 1,
            "name" : "Cylinder",
            "scale" : [
                0.20000000298023224,
                3,
                0.20000000298023224
            ],
            "translation" : [
                0,
                3,
                0
            ]
        },
        {
            "mesh" : 2,
            "name" : "Torus",
            "scale" : [
                0.30000001192092896,
                3,
                0.30000001192092896
            ],
            "translation" : [
                0,
                5.199999809265137,
                0
            ]
        },
        {
            "mesh" : 3,
            "name" : "Cylinder.001",
            "rotation" : [
                0,
                0,
                -0.7071068286895752,
                0.7071068286895752
            ],
            "scale" : [
                0.20000000298023224,
                2,
                0.20000000298023224
            ],
            "translation" : [
                2,
                5.199999809265137,
                0
            ]
        },
        {
            "mesh" : 4,
            "name" : "Cylinder.002",
            "rotation" : [
                0,
                0,
                -0.7071068286895752,
                0.7071068286895752
            ],
            "scale" : [
                0.10000000149011612,
                2,
                0.10000000149011612
            ],
            "translation" : [
                4,
                5.199999809265137,
                0
            ]
        },
        {
            "mesh" : 5,
            "name" : "Cube",
            "scale" : [
                0.10000000149011612,
                0.15000000596046448,
                0.5
            ],
            "translation" : [
                6,
                5.199999809265137,
                0
            ]
        },
        {
            "mesh" : 6,
            "name" : "Cube.001",
            "scale" : [
                0.4000000059604645,
                0.15000000596046448,
                0.05999999865889549
            ],
            "translation" : [
                6.300000190734863,
                5.199999809265137,
                0.44999998807907104
            ]
        },
        {
            "mesh" : 7,
            "name" : "Cube.002",
            "scale" : [
                0.4000000059604645,
                0.15000000596046448,
                0.05999999865889549
            ],
            "translation" : [
                6.300000190734863,
                5.199999809265137,
                -0.44999998807907104
            ]
        }
    ],
    "meshes" : [
        {
            "name" : "Cone",
            "primitives" : [
                {
                    "attributes" : {
                        "POSITION" : 0,
                        "NORMAL" : 1,
                        "TEXCOORD_0" : 2
                    },
                    "indices" : 3
                }
            ]
        },
        {
            "name" : "Cylinder",
            "primitives" : [
                {
                    "attributes" : {
                        "POSITION" : 4,
                        "NORMAL" : 5,
                        "TEXCOORD_0" : 6
                    },
                    "indices" : 7
                }
            ]
        },
        {
            "name" : "Torus",
            "primitives" : [
                {
                    "attributes" : {
                        "POSITION" : 8,
                        "NORMAL" : 9,
                        "TEXCOORD_0" : 10
                    },
                    "indices" : 11
                }
            ]
        },
        {
            "name" : "Cylinder.001",
            "primitives" : [
                {
                    "attributes" : {
                        "POSITION" : 12,
                        "NORMAL" : 13,
                        "TEXCOORD_0" : 14
                    },
                    "indices" : 7
                }
            ]
        },
        {
            "name" : "Cylinder.002",
            "primitives" : [
                {
                    "attributes" : {
                        "POSITION" : 15,
                        "NORMAL" : 16,
                        "TEXCOORD_0" : 17
                    },
                    "indices" : 7
                }
            ]
        },
        {
            "name" : "Cube.001",
            "primitives" : [
                {
                    "attributes" : {
                        "POSITION" : 18,
                        "NORMAL" : 19,
                        "TEXCOORD_0" : 20
                    },
                    "indices" : 21
                }
            ]
        },
        {
            "name" : "Cube.002",
            "primitives" : [
                {
                    "attributes" : {
                        "POSITION" : 22,
                        "NORMAL" : 23,
                        "TEXCOORD_0" : 24
                    },
                    "indices" : 25
                }
            ]
        },
        {
            "name" : "Cube.003",
            "primitives" : [
                {
                    "attributes" : {
                        "POSITION" : 26,
                        "NORMAL" : 27,
                        "TEXCOORD_0" : 28
                    },
                    "indices" : 29
                }
            ]
        }
    ],
    "accessors" : [
        {
            "bufferView" : 0,
            "componentType" : 5126,
            "count" : 128,
            "max" : [
                1,
                1,
                1
            ],
            "min" : [
                -1,
                -1,
                -1
            ],
            "type" : "VEC3"
        },
        {
            "bufferView" : 1,
            "componentType" : 5126,
            "count" : 128,
            "type" : "VEC3"
        },
        {
            "bufferView" : 2,
            "componentType" : 5126,
            "count" : 128,
            "type" : "VEC2"
        },
        {
            "bufferView" : 3,
            "componentType" : 5123,
            "count" : 186,
            "type" : "SCALAR"
        },
        {
            "bufferView" : 4,
            "componentType" : 5126,
            "count" : 192,
            "max" : [
                1,
                1,
                1
            ],
            "min" : [
                -1,
                -1,
                -1
            ],
            "type" : "VEC3"
        },
        {
            "bufferView" : 5,
            "componentType" : 5126,
            "count" : 192,
            "type" : "VEC3"
        },
        {
            "bufferView" : 6,
            "componentType" : 5126,
            "count" : 192,
            "type" : "VEC2"
        },
        {
            "bufferView" : 7,
            "componentType" : 5123,
            "count" : 372,
            "type" : "SCALAR"
        },
        {
            "bufferView" : 8,
            "componentType" : 5126,
            "count" : 2304,
            "max" : [
                1.25,
                0.25,
                1.25
            ],
            "min" : [
                -1.25,
                -0.25,
                -1.25
            ],
            "type" : "VEC3"
        },
        {
            "bufferView" : 9,
            "componentType" : 5126,
            "count" : 2304,
            "type" : "VEC3"
        },
        {
            "bufferView" : 10,
            "componentType" : 5126,
            "count" : 2304,
            "type" : "VEC2"
        },
        {
            "bufferView" : 11,
            "componentType" : 5123,
            "count" : 3456,
            "type" : "SCALAR"
        },
        {
            "bufferView" : 12,
            "componentType" : 5126,
            "count" : 192,
            "max" : [
                1,
                1,
                1
            ],
            "min" : [
                -1,
                -1,
                -1
            ],
            "type" : "VEC3"
        },
        {
            "bufferView" : 13,
            "componentType" : 5126,
            "count" : 192,
            "type" : "VEC3"
        },
        {
            "bufferView" : 14,
            "componentType" : 5126,
            "count" : 192,
            "type" : "VEC2"
        },
        {
            "bufferView" : 15,
            "componentType" : 5126,
            "count" : 192,
            "max" : [
                1,
                1,
                1
            ],
            "min" : [
                -1,
                -1,
                -1
            ],
            "type" : "VEC3"
        },
        {
            "bufferView" : 16,
            "componentType" : 5126,
            "count" : 192,
            "type" : "VEC3"
        },
        {
            "bufferView" : 17,
            "componentType" : 5126,
            "count" : 192,
            "type" : "VEC2"
        },
        {
            "bufferView" : 18,
            "componentType" : 5126,
            "count" : 24,
            "max" : [
                1,
                1,
                1
            ],
            "min" : [
                -1,
                -1,
                -1
            ],
            "type" : "VEC3"
        },
        {
            "bufferView" : 19,
            "componentType" : 5126,
            "count" : 24,
            "type" : "VEC3"
        },
        {
            "bufferView" : 20,
            "componentType" : 5126,
            "count" : 24,
            "type" : "VEC2"
        },
        {
            "bufferView" : 21,
            "componentType" : 5123,
            "count" : 36,
            "type" : "SCALAR"
        },
        {
            "bufferView" : 22,
            "componentType" : 5126,
            "count" : 48,
            "max" : [
                1.6345841884613037,
                1,
                1.0371503829956055
            ],
            "min" : [
                -1,
                -1,
                -3.037151336669922
            ],
            "type" : "VEC3"
        },
        {
            "bufferView" : 23,
            "componentType" : 5126,
            "count" : 48,
            "type" : "VEC3"
        },
        {
            "bufferView" : 24,
            "componentType" : 5126,
            "count" : 48,
            "type" : "VEC2"
        },
        {
            "bufferView" : 25,
            "componentType" : 5123,
            "count" : 72,
            "type" : "SCALAR"
        },
        {
            "bufferView" : 26,
            "componentType" : 5126,
            "count" : 48,
            "max" : [
                1.6345841884613037,
                1,
                3.037151336669922
            ],
            "min" : [
                -1,
                -1,
                -1.0371503829956055
            ],
            "type" : "VEC3"
        },
        {
            "bufferView" : 27,
            "componentType" : 5126,
            "count" : 48,
            "type" : "VEC3"
        },
        {
            "bufferView" : 28,
            "componentType" : 5126,
            "count" : 48,
            "type" : "VEC2"
        },
        {
            "bufferView" : 29,
            "componentType" : 5123,
            "count" : 72,
            "type" : "SCALAR"
        }
    ],
    "bufferViews" : [
        {
            "buffer" : 0,
            "byteLength" : 1536,
            "byteOffset" : 0
        },
        {
            "buffer" : 0,
            "byteLength" : 1536,
            "byteOffset" : 1536
        },
        {
            "buffer" : 0,
            "byteLength" : 1024,
            "byteOffset" : 3072
        },
        {
            "buffer" : 0,
            "byteLength" : 372,
            "byteOffset" : 4096
        },
        {
            "buffer" : 0,
            "byteLength" : 2304,
            "byteOffset" : 4468
        },
        {
            "buffer" : 0,
            "byteLength" : 2304,
            "byteOffset" : 6772
        },
        {
            "buffer" : 0,
            "byteLength" : 1536,
            "byteOffset" : 9076
        },
        {
            "buffer" : 0,
            "byteLength" : 744,
            "byteOffset" : 10612
        },
        {
            "buffer" : 0,
            "byteLength" : 27648,
            "byteOffset" : 11356
        },
        {
            "buffer" : 0,
            "byteLength" : 27648,
            "byteOffset" : 39004
        },
        {
            "buffer" : 0,
            "byteLength" : 18432,
            "byteOffset" : 66652
        },
        {
            "buffer" : 0,
            "byteLength" : 6912,
            "byteOffset" : 85084
        },
        {
            "buffer" : 0,
            "byteLength" : 2304,
            "byteOffset" : 91996
        },
        {
            "buffer" : 0,
            "byteLength" : 2304,
            "byteOffset" : 94300
        },
        {
            "buffer" : 0,
            "byteLength" : 1536,
            "byteOffset" : 96604
        },
        {
            "buffer" : 0,
            "byteLength" : 2304,
            "byteOffset" : 98140
        },
        {
            "buffer" : 0,
            "byteLength" : 2304,
            "byteOffset" : 100444
        },
        {
            "buffer" : 0,
            "byteLength" : 1536,
            "byteOffset" : 102748
        },
        {
            "buffer" : 0,
            "byteLength" : 288,
            "byteOffset" : 104284
        },
        {
            "buffer" : 0,
            "byteLength" : 288,
            "byteOffset" : 104572
        },
        {
            "buffer" : 0,
            "byteLength" : 192,
            "byteOffset" : 104860
        },
        {
            "buffer" : 0,
            "byteLength" : 72,
            "byteOffset" : 105052
        },
        {
            "buffer" : 0,
            "byteLength" : 576,
            "byteOffset" : 105124
        },
        {
            "buffer" : 0,
            "byteLength" : 576,
            "byteOffset" : 105700
        },
        {
            "buffer" : 0,
            "byteLength" : 384,
            "byteOffset" : 106276
        },
        {
            "buffer" : 0,
            "byteLength" : 144,
            "byteOffset" : 106660
        },
        {
            "buffer" : 0,
            "byteLength" : 576,
            "byteOffset" : 106804
        },
        {
            "buffer" : 0,
            "byteLength" : 576,
            "byteOffset" : 107380
        },
        {
            "buffer" : 0,
            "byteLength" : 384,
            "byteOffset" : 107956
        },
        {
            "buffer" : 0,
            "byteLength" : 144,
            "byteOffset" : 108340
        }
    ],
    "buffers" : [
        {
            "byteLength" : 108484,
            "uri" : "Robot.bin"
        }
    ]
}
